# xmcd CD database file
#
# Track frame offsets:
#	150
#	25286
#	46574
#	72600
#	102245
#	118238
#	147836
#	171124
#	200539
#	238951
#
# Disc length: 3720 seconds
#
# Revision: 2
# Processed by: cddbd v1.5.2PL0 Copyright (c) Steve Scherf et al.
# Submitted via: CDex 1.70beta2
#
DISCID=910e860a
DTITLE=Kraiberg Jazz Band - Querbeat
DYEAR=2010
DGENRE=Jazz
TTITLE0=Cantaloop Island
TTITLE1=Hi Heel Sneakers
TTITLE2=Agua De Beber
TTITLE3=Moondance
TTITLE4=Toc-Toc
TTITLE5=Take Five
TTITLE6=Hallelujah I Love Him So
TTITLE7=Herd Hearted Hannah
TTITLE8=Tokyo Blues
TTITLE9=Stormy Weather Blues
EXTD=YEAR: 2010
EXTT0=
EXTT1=
EXTT2=
EXTT3=
EXTT4=
EXTT5=
EXTT6=
EXTT7=
EXTT8=
EXTT9=
PLAYORDER=
